<svg width="187" height="45" viewBox="0 0 187 45" fill="none" xmlns="http://www.w3.org/2000/svg">
<path d="M68.544 14.008V18.232H64.032V31H58.704V18.232H54.24V14.008H68.544ZM69.2691 24.232C69.2691 22.808 69.5091 21.576 69.9891 20.536C70.4851 19.48 71.1571 18.68 72.0051 18.136C72.8531 17.576 73.8051 17.296 74.8611 17.296C75.7411 17.296 76.5011 17.48 77.1411 17.848C77.7811 18.2 78.2691 18.688 78.6051 19.312V17.464H83.9091V31H78.6051V29.152C78.2691 29.776 77.7811 30.272 77.1411 30.64C76.5011 30.992 75.7411 31.168 74.8611 31.168C73.8051 31.168 72.8531 30.896 72.0051 30.352C71.1571 29.792 70.4851 28.992 69.9891 27.952C69.5091 26.896 69.2691 25.656 69.2691 24.232ZM78.6051 24.232C78.6051 23.512 78.4211 22.952 78.0531 22.552C77.6851 22.152 77.2131 21.952 76.6371 21.952C76.0611 21.952 75.5891 22.152 75.2211 22.552C74.8531 22.952 74.6691 23.512 74.6691 24.232C74.6691 24.952 74.8531 25.512 75.2211 25.912C75.5891 26.312 76.0611 26.512 76.6371 26.512C77.2131 26.512 77.6851 26.312 78.0531 25.912C78.4211 25.512 78.6051 24.952 78.6051 24.232ZM92.3256 31.168C91.0456 31.168 89.9096 30.96 88.9176 30.544C87.9416 30.128 87.1656 29.552 86.5896 28.816C86.0136 28.08 85.6856 27.248 85.6056 26.32H90.7176C90.7816 26.72 90.9496 27.016 91.2216 27.208C91.5096 27.4 91.8696 27.496 92.3016 27.496C92.5736 27.496 92.7896 27.44 92.9496 27.328C93.1096 27.2 93.1896 27.048 93.1896 26.872C93.1896 26.568 93.0216 26.352 92.6856 26.224C92.3496 26.096 91.7816 25.952 90.9816 25.792C90.0056 25.6 89.1976 25.392 88.5576 25.168C87.9336 24.944 87.3816 24.56 86.9016 24.016C86.4376 23.472 86.2056 22.72 86.2056 21.76C86.2056 20.928 86.4216 20.176 86.8536 19.504C87.3016 18.816 87.9576 18.28 88.8216 17.896C89.6856 17.496 90.7336 17.296 91.9656 17.296C93.7896 17.296 95.2136 17.744 96.2376 18.64C97.2776 19.536 97.9016 20.704 98.1096 22.144H93.3816C93.3016 21.776 93.1336 21.496 92.8776 21.304C92.6216 21.096 92.2776 20.992 91.8456 20.992C91.5736 20.992 91.3656 21.048 91.2216 21.16C91.0776 21.256 91.0056 21.408 91.0056 21.616C91.0056 21.888 91.1736 22.096 91.5096 22.24C91.8456 22.368 92.3816 22.504 93.1176 22.648C94.0936 22.84 94.9176 23.056 95.5896 23.296C96.2616 23.536 96.8456 23.952 97.3416 24.544C97.8376 25.12 98.0856 25.92 98.0856 26.944C98.0856 27.744 97.8536 28.464 97.3896 29.104C96.9256 29.744 96.2536 30.248 95.3736 30.616C94.5096 30.984 93.4936 31.168 92.3256 31.168ZM108.624 26.464V31H106.608C102.896 31 101.04 29.152 101.04 25.456V21.904H99.36V17.464H101.04V14.2H106.368V17.464H108.576V21.904H106.368V25.552C106.368 25.872 106.44 26.104 106.584 26.248C106.744 26.392 107 26.464 107.352 26.464H108.624ZM123.757 24.112C123.757 24.48 123.733 24.832 123.685 25.168H115.117C115.197 26.336 115.685 26.92 116.581 26.92C117.157 26.92 117.573 26.656 117.829 26.128H123.469C123.277 27.088 122.869 27.952 122.245 28.72C121.637 29.472 120.861 30.072 119.917 30.52C118.989 30.952 117.965 31.168 116.845 31.168C115.501 31.168 114.301 30.888 113.245 30.328C112.205 29.768 111.389 28.968 110.797 27.928C110.221 26.872 109.933 25.64 109.933 24.232C109.933 22.824 110.221 21.6 110.797 20.56C111.389 19.504 112.205 18.696 113.245 18.136C114.301 17.576 115.501 17.296 116.845 17.296C118.189 17.296 119.381 17.576 120.421 18.136C121.477 18.68 122.293 19.464 122.869 20.488C123.461 21.512 123.757 22.72 123.757 24.112ZM118.357 22.84C118.357 22.392 118.213 22.056 117.925 21.832C117.637 21.592 117.277 21.472 116.845 21.472C115.901 21.472 115.349 21.928 115.189 22.84H118.357Z" fill="#333333"/>
<path d="M132.09 31.168C130.058 31.168 128.378 30.696 127.05 29.752C125.738 28.792 125.026 27.392 124.914 25.552H130.578C130.658 26.528 131.09 27.016 131.874 27.016C132.162 27.016 132.402 26.952 132.594 26.824C132.802 26.68 132.906 26.464 132.906 26.176C132.906 25.776 132.69 25.456 132.258 25.216C131.826 24.96 131.154 24.672 130.242 24.352C129.154 23.968 128.25 23.592 127.53 23.224C126.826 22.856 126.218 22.32 125.706 21.616C125.194 20.912 124.946 20.008 124.962 18.904C124.962 17.8 125.242 16.864 125.802 16.096C126.378 15.312 127.154 14.72 128.13 14.32C129.122 13.92 130.234 13.72 131.466 13.72C133.546 13.72 135.194 14.2 136.41 15.16C137.642 16.12 138.29 17.472 138.354 19.216H132.618C132.602 18.736 132.482 18.392 132.258 18.184C132.034 17.976 131.762 17.872 131.442 17.872C131.218 17.872 131.034 17.952 130.89 18.112C130.746 18.256 130.674 18.464 130.674 18.736C130.674 19.12 130.882 19.44 131.298 19.696C131.73 19.936 132.41 20.232 133.338 20.584C134.41 20.984 135.29 21.368 135.978 21.736C136.682 22.104 137.29 22.616 137.802 23.272C138.314 23.928 138.57 24.752 138.57 25.744C138.57 26.784 138.314 27.72 137.802 28.552C137.29 29.368 136.546 30.008 135.57 30.472C134.594 30.936 133.434 31.168 132.09 31.168ZM155.73 17.464L147.066 37.48H141.234L144.642 30.328L139.002 17.464H144.93L147.474 24.328L149.85 17.464H155.73ZM166.164 17.368C167.716 17.368 168.924 17.888 169.788 18.928C170.668 19.968 171.108 21.376 171.108 23.152V31H165.804V23.824C165.804 23.184 165.628 22.68 165.276 22.312C164.94 21.928 164.484 21.736 163.908 21.736C163.316 21.736 162.852 21.928 162.516 22.312C162.18 22.68 162.012 23.184 162.012 23.824V31H156.684V17.464H162.012V19.528C162.428 18.888 162.98 18.368 163.668 17.968C164.372 17.568 165.204 17.368 166.164 17.368ZM172.699 24.232C172.699 22.824 172.987 21.6 173.563 20.56C174.155 19.504 174.971 18.696 176.011 18.136C177.067 17.576 178.267 17.296 179.611 17.296C181.371 17.296 182.851 17.792 184.051 18.784C185.267 19.776 186.035 21.152 186.355 22.912H180.715C180.507 22.208 180.099 21.856 179.491 21.856C179.059 21.856 178.715 22.056 178.459 22.456C178.219 22.856 178.099 23.448 178.099 24.232C178.099 25.016 178.219 25.608 178.459 26.008C178.715 26.408 179.059 26.608 179.491 26.608C180.099 26.608 180.507 26.256 180.715 25.552H186.355C186.035 27.312 185.267 28.688 184.051 29.68C182.851 30.672 181.371 31.168 179.611 31.168C178.267 31.168 177.067 30.888 176.011 30.328C174.971 29.768 174.155 28.968 173.563 27.928C172.987 26.872 172.699 25.64 172.699 24.232Z" fill="#EB5757"/>
<rect x="4" y="4" width="40" height="40" rx="6.66667" fill="black"/>
<path d="M23.659 15.504V16.6208C23.659 17.5818 23.479 17.7376 22.8585 18.0755L17.0771 21.0105V21.1405L22.8323 24.0238C23.479 24.3612 23.659 24.4913 23.659 25.4784V26.725C23.659 27.5042 23.4003 27.764 22.7292 27.4005L14.0308 22.6208C13.5152 22.3353 13.3334 22.1274 13.3334 21.5302V20.6989C13.3334 20.1014 13.5152 19.8676 14.0308 19.5821L22.7292 14.8285C23.4003 14.4649 23.659 14.7246 23.659 15.504Z" fill="white"/>
<path d="M24.5775 19.6117L33.2497 24.3651C33.7915 24.6508 33.9733 24.8586 33.9733 25.4559V26.2872C33.9733 26.9106 33.7915 27.1183 33.2497 27.404L24.5775 32.1575C23.8802 32.5212 23.6477 32.2615 23.6477 31.4822V30.3653C23.6477 29.4043 23.8277 29.2483 24.4482 28.9367L30.2296 26.0015V25.8457L24.4744 22.9624C23.8277 22.6508 23.6477 22.4948 23.6477 21.5077V20.2609C23.6477 19.4815 23.8802 19.2221 24.5775 19.6117Z" fill="white"/>
<g clip-path="url(#clip0_61_927)">
<path d="M0 10C0 4.47715 4.47715 0 10 0H35C40.5228 0 45 4.47715 45 10V35C45 40.5228 40.5228 45 35 45H10C4.47715 45 0 40.5228 0 35V10Z" fill="#EB5757"/>
<circle cx="13" cy="45" r="28.5" stroke="#ED6262" stroke-width="15"/>
</g>
<path d="M36.4909 19.3589C35.9883 18.8888 31.5143 16.6191 27.2145 21.2158L23.8703 24.791C22.8162 25.9178 22.8608 27.6773 23.9698 28.7146L24.9751 29.6549L21.153 33.7409C20.6245 34.3059 20.6468 35.1826 21.2028 35.7027C21.7588 36.2228 22.6351 36.1866 23.1636 35.6216L26.9856 31.5356L30.3299 27.9604L36.5407 21.3208C37.0692 20.7557 37.0469 19.8791 36.4909 19.3589ZM24.9552 9.52594C25.2 9.26419 25.2114 8.86787 24.9807 8.59818C24.75 8.32849 24.3594 8.28635 24.067 8.48563L19.0452 11.9461C18.8131 12.1061 18.6 12.2898 18.4089 12.4941C17.0384 13.9593 17.0153 16.1942 18.3034 17.6445L11.603 24.8077C11.0744 25.3727 11.0967 26.2494 11.6527 26.7695C12.2088 27.2896 13.085 27.2534 13.6135 26.6883L20.314 19.5252C21.8469 20.7137 24.0753 20.5417 25.4458 19.0765C25.6369 18.8722 25.8061 18.6473 25.9502 18.4051L29.0682 13.1638C29.2505 12.8556 29.1732 12.466 28.8918 12.2567C28.6105 12.0474 28.2158 12.0852 27.971 12.347L23.9638 16.6308C23.8026 16.8032 23.533 16.8144 23.3633 16.6557C23.2031 16.5058 23.1876 16.2579 23.3242 16.0804L27.0044 11.359C27.2302 11.0735 27.2016 10.6696 26.9408 10.4257C26.6801 10.1818 26.2752 10.1802 26.0054 10.4245L21.543 14.4142C21.375 14.5623 21.1266 14.5634 20.9664 14.4135C20.7967 14.2549 20.7899 13.9851 20.9511 13.8127L24.9583 9.52888L24.9552 9.52594ZM21.9338 15.7973L21.9244 15.7885L21.915 15.7797L21.9453 15.7662L21.9338 15.7973Z" fill="white"/>
<defs>
<clipPath id="clip0_61_927">
<path d="M0 10C0 4.47715 4.47715 0 10 0H35C40.5228 0 45 4.47715 45 10V35C45 40.5228 40.5228 45 35 45H10C4.47715 45 0 40.5228 0 35V10Z" fill="white"/>
</clipPath>
</defs>
</svg>
