<svg width="16" height="18" viewBox="0 0 16 18" fill="none" xmlns="http://www.w3.org/2000/svg">
<g clip-path="url(#clip0_47_898)">
<path d="M14.8571 0C14.2857 0 10.2857 1.125 10.2857 6.1875V10.125C10.2857 11.366 11.3107 12.375 12.5714 12.375H13.7143V16.875C13.7143 17.4973 14.225 18 14.8571 18C15.4893 18 16 17.4973 16 16.875V12.375V8.4375V1.125C16 0.502734 15.4893 0 14.8571 0ZM2.28571 0.5625C2.28571 0.274219 2.06786 0.0351562 1.775 0.00351563C1.48214 -0.028125 1.22143 0.161719 1.15714 0.439453L0.075 5.23125C0.025 5.45273 0 5.67773 0 5.90273C0 7.51641 1.25357 8.8418 2.85714 8.98594V16.875C2.85714 17.4973 3.36786 18 4 18C4.63214 18 5.14286 17.4973 5.14286 16.875V8.98594C6.74643 8.8418 8 7.51641 8 5.90273C8 5.67773 7.975 5.45273 7.925 5.23125L6.84286 0.439453C6.77857 0.158203 6.51071 -0.028125 6.22143 0.00351563C5.93214 0.0351562 5.71429 0.274219 5.71429 0.5625V5.28047C5.71429 5.47031 5.55714 5.625 5.36429 5.625C5.18214 5.625 5.03214 5.48789 5.01429 5.30859L4.56786 0.513281C4.54286 0.221484 4.29643 0 4 0C3.70357 0 3.45714 0.221484 3.43214 0.513281L2.98929 5.30859C2.97143 5.48789 2.82143 5.625 2.63929 5.625C2.44643 5.625 2.28929 5.47031 2.28929 5.28047V0.5625H2.28571ZM4.01071 5.90625H4H3.98929L4 5.88164L4.01071 5.90625Z" fill="#0066FF"/>
</g>
<defs>
<clipPath id="clip0_47_898">
<rect width="16" height="18" fill="white"/>
</clipPath>
</defs>
</svg>
