<svg width="20" height="18" viewBox="0 0 20 18" fill="none" xmlns="http://www.w3.org/2000/svg">
<g clip-path="url(#clip0_55_897)">
<path d="M13.8889 8.97891V8.4375V7.3125C13.8889 7.00312 13.6389 6.75 13.3333 6.75H12.2222H11.6667H10.0521C8.28472 6.75 6.79167 7.92773 6.29167 9.54844C6.17708 9.21797 6.11111 8.85234 6.11111 8.4375C6.11111 6.26133 7.85069 4.5 10 4.5H11.6667H12.2222H13.3333C13.6389 4.5 13.8889 4.24688 13.8889 3.9375V2.8125V2.27109L17.5694 5.625L13.8889 8.97891ZM11.6667 8.4375H12.2222V10.125C12.2222 10.7473 12.7188 11.25 13.3333 11.25H13.4618C13.7361 11.25 14 11.148 14.2049 10.9617L19.0313 6.56367C19.2951 6.32461 19.4444 5.98359 19.4444 5.625C19.4444 5.26641 19.2951 4.92539 19.0313 4.68633L14.2326 0.312891C14.0104 0.1125 13.7257 0 13.4271 0C12.7604 0 12.2222 0.544922 12.2222 1.21992V2.8125H11.6667H10.5556H10C6.93056 2.8125 4.44444 5.32969 4.44444 8.4375C4.44444 10.5609 5.64583 11.9215 6.66319 12.6879C6.86806 12.8426 7.0625 12.9727 7.24306 13.0816C7.39583 13.1766 7.53819 13.2539 7.65625 13.3137C7.77431 13.3734 7.87153 13.4191 7.94097 13.4508C8.01736 13.4859 8.10069 13.5 8.1875 13.5H8.27431C8.61458 13.5 8.89236 13.2188 8.89236 12.8742C8.89236 12.6 8.70833 12.3574 8.48958 12.1887C8.47569 12.1781 8.46528 12.1711 8.45139 12.1605C8.39236 12.1219 8.33333 12.0727 8.27778 12.0164C8.25 11.9883 8.21875 11.9602 8.19097 11.925C8.16319 11.8898 8.13542 11.8582 8.10764 11.823C8.04514 11.7352 7.98611 11.6367 7.93403 11.5242C7.84375 11.3133 7.78472 11.0566 7.78472 10.7367C7.78472 9.46758 8.80208 8.43398 10.059 8.43398H10.5556H11.6667V8.4375ZM2.5 1.125C1.11806 1.125 0 2.25703 0 3.65625V15.4688C0 16.868 1.11806 18 2.5 18H14.1667C15.5486 18 16.6667 16.868 16.6667 15.4688V13.2188C16.6667 12.7512 16.2951 12.375 15.8333 12.375C15.3715 12.375 15 12.7512 15 13.2188V15.4688C15 15.9363 14.6285 16.3125 14.1667 16.3125H2.5C2.03819 16.3125 1.66667 15.9363 1.66667 15.4688V3.65625C1.66667 3.18867 2.03819 2.8125 2.5 2.8125H4.72222C5.18403 2.8125 5.55556 2.43633 5.55556 1.96875C5.55556 1.50117 5.18403 1.125 4.72222 1.125H2.5Z" fill="white"/>
</g>
<defs>
<clipPath id="clip0_55_897">
<rect width="20" height="18" fill="white"/>
</clipPath>
</defs>
</svg>
